<?xml version="1.0" encoding="UTF-8" standalone="no"?>
<!DOCTYPE svg PUBLIC "-//W3C//DTD SVG 1.1//EN" "http://www.w3.org/Graphics/SVG/1.1/DTD/svg11.dtd">
<svg width="100%" height="100%" viewBox="0 0 4000 4000" version="1.1" xmlns="http://www.w3.org/2000/svg" xmlns:xlink="http://www.w3.org/1999/xlink" xml:space="preserve" xmlns:serif="http://www.serif.com/" style="fill-rule:evenodd;clip-rule:evenodd;stroke-linejoin:round;stroke-miterlimit:2;">
    <g transform="matrix(8.65157,0,0,8.65157,-15303.1,-27800.8)">
        <g transform="matrix(1,0,0,1,107.344,0)">
            <path d="M2123.83,3328.96C2123.83,3265.17 2072.03,3213.38 2008.24,3213.38L1777.07,3213.38C1713.28,3213.38 1661.48,3265.17 1661.48,3328.96L1661.48,3560.14C1661.48,3623.93 1713.28,3675.72 1777.07,3675.72L2008.24,3675.72C2072.03,3675.72 2123.83,3623.93 2123.83,3560.14L2123.83,3328.96Z" style="fill:rgb(0,115,210);"/>
        </g>
        <g transform="matrix(13.8728,0,0,13.8728,-24142,-42519.1)">
            <g transform="matrix(0.0228879,0,0,0.022102,1837.04,3270.21)">
                <path d="M2088.36,2164.55C2094.25,2167.47 2098.51,2173.03 2099.91,2179.63C2101.32,2186.23 2099.72,2193.13 2095.57,2198.34C2094.22,2200.05 2092.86,2201.74 2091.49,2203.41C2013.5,2298.38 1881.85,2323.65 1776.17,2263.92C1699.84,2220.57 1636.73,2168.8 1587.47,2108.2C1491.31,1990.09 1495.19,1816.31 1596.5,1702.92C1733.16,1550.31 1889.71,1431.72 2112,1381.67C2203.49,1361.07 2270.8,1388.44 2294.61,1432.64C2299.45,1441.57 2300.37,1452.2 2297.16,1461.88C2293.96,1471.56 2286.92,1479.36 2277.81,1483.33C2142.45,1542.37 2011.89,1607.27 1908.91,1705.85C1863.67,1749.08 1837.85,1809.85 1837.62,1873.59C1837.38,1937.34 1862.77,1998.31 1907.68,2041.89C1957.92,2090.32 2019.51,2130.18 2088.36,2164.55Z" style="fill:white;"/>
            </g>
            <g transform="matrix(-0.0228879,-2.70671e-18,2.80296e-18,-0.022102,1931.79,3356.25)">
                <path d="M2088.36,2164.55C2094.25,2167.47 2098.51,2173.03 2099.91,2179.63C2101.32,2186.23 2099.72,2193.13 2095.57,2198.34C2094.22,2200.05 2092.86,2201.74 2091.49,2203.41C2013.5,2298.38 1881.85,2323.65 1776.17,2263.92C1699.84,2220.57 1636.73,2168.8 1587.47,2108.2C1491.31,1990.09 1495.19,1816.31 1596.5,1702.92C1733.16,1550.31 1889.71,1431.72 2112,1381.67C2203.49,1361.07 2270.8,1388.44 2294.61,1432.64C2299.45,1441.57 2300.37,1452.2 2297.16,1461.88C2293.96,1471.56 2286.92,1479.36 2277.81,1483.33C2142.45,1542.37 2011.89,1607.27 1908.91,1705.85C1863.67,1749.08 1837.85,1809.85 1837.62,1873.59C1837.38,1937.34 1862.77,1998.31 1907.68,2041.89C1957.92,2090.32 2019.51,2130.18 2088.36,2164.55Z" style="fill:white;"/>
            </g>
        </g>
    </g>
</svg>
